# Blender v2.93.5 OBJ File: 'cube.blend'
# www.blender.org
mtllib Cube.mtl
o Cube
v 1.000000 1.000000 -1.000000
v 1.000000 -1.000000 -1.000000
v 1.000000 1.000000 1.000000
v 1.000000 -1.000000 1.000000
v -1.000000 1.000000 -1.000000
v -1.000000 -1.000000 -1.000000
v -1.000000 1.000000 1.000000
v -1.000000 -1.000000 1.000000
vt 0.000600 -0.000439
vt 1.000960 -0.001683
vt 0.999817 0.999879
vt -0.000216 1.001285
vt 0.002422 0.007843
vt 1.005422 0.002922
vt 1.000566 1.000744
vt -0.003906 1.001132
vt -0.003248 -0.006496
vt 1.006348 -0.000295
vt 1.009449 1.000000
vt -0.003248 1.000000
vt 0.000000 0.005906
vt 1.012697 0.005906
vt 1.009596 1.000000
vt 0.000000 1.000000
vt -0.002116 0.000837
vt 1.004380 0.010138
vt 1.013681 1.001132
vt -0.002116 1.001132
vt 0.001821 -0.014665
vt -0.007480 1.001132
vn 0.0000 0.0000 -1.0000
vn 0.0000 1.0000 0.0000
vn 0.0000 0.0000 1.0000
vn -1.0000 0.0000 0.0000
vn 0.0000 -1.0000 0.0000
vn 1.0000 0.0000 0.0000
usemtl Material
s off
f 6/1/1 5/2/1 1/3/1 2/4/1
usemtl Material.001
f 1/5/2 5/6/2 7/7/2 3/8/2
f 4/9/3 3/10/3 7/11/3 8/12/3
f 8/13/4 7/14/4 5/15/4 6/16/4
f 6/17/5 2/18/5 4/19/5 8/20/5
f 2/18/6 1/21/6 3/22/6 4/19/6
